<svg width="215" height="269" viewBox="0 0 215 269" fill="none" xmlns="http://www.w3.org/2000/svg">
<rect x="5" y="17" width="205" height="205" rx="26" fill="white"/>
<path d="M26.1523 52.3281C31.7513 52.849 36.6992 53.2396 40.9961 53.5C45.293 53.7604 48.8737 54.0208 51.7383 54.2812C55.1237 54.5417 57.9883 54.737 60.332 54.8672C62.6758 54.9974 65.5404 55.0625 68.9258 55.0625C71.7904 55.1927 75.3711 55.2578 79.668 55.2578C83.9648 55.2578 89.043 55.2578 94.9023 55.2578C91.1263 57.0807 88.1966 58.7734 86.1133 60.3359C84.1602 61.8984 82.6628 63.2656 81.6211 64.4375C80.319 65.8698 79.5378 67.1719 79.2773 68.3438C79.1471 69.3854 79.4076 71.1432 80.0586 73.6172C80.7096 76.0911 81.6211 78.8906 82.793 82.0156C83.9648 85.0104 85.3971 88.2005 87.0898 91.5859C88.7826 94.9714 90.5404 98.0312 92.3633 100.766C94.3164 103.37 96.2695 105.518 98.2227 107.211C100.176 108.904 102.064 109.685 103.887 109.555C105.71 109.424 107.923 108.578 110.527 107.016C113.132 105.323 115.801 103.24 118.535 100.766C121.4 98.2917 124.199 95.6224 126.934 92.7578C129.668 89.8932 132.077 87.0938 134.16 84.3594C136.374 81.625 138.132 79.151 139.434 76.9375C140.866 74.5938 141.582 72.901 141.582 71.8594C141.452 70.5573 140.931 69.0599 140.02 67.3672C139.238 65.9349 137.936 64.2422 136.113 62.2891C134.29 60.2057 131.751 57.862 128.496 55.2578C139.173 55.6484 146.986 55.8438 151.934 55.8438H159.16H167.363C170.358 55.8438 174.329 55.8438 179.277 55.8438C184.225 55.7135 190.41 55.5182 197.832 55.2578C192.754 58.6432 188.327 61.7031 184.551 64.4375C180.905 67.0417 177.78 69.2552 175.176 71.0781C172.181 73.2917 169.707 75.2448 167.754 76.9375C165.54 78.7604 162.48 81.625 158.574 85.5312C155.189 88.9167 150.697 93.474 145.098 99.2031C139.499 104.802 132.467 112.094 124.004 121.078C122.832 130.583 122.051 138.266 121.66 144.125C121.4 149.984 121.27 154.607 121.27 157.992C121.27 161.898 121.53 164.828 122.051 166.781C122.702 168.344 123.809 170.167 125.371 172.25C126.673 174.073 128.496 176.221 130.84 178.695C133.314 181.169 136.569 183.904 140.605 186.898C136.309 185.857 132.272 185.076 128.496 184.555C124.85 184.034 121.595 183.643 118.73 183.383C115.345 182.992 112.285 182.797 109.551 182.797C106.686 182.797 103.301 182.927 99.3945 183.188C96.0091 183.448 91.9727 183.773 87.2852 184.164C82.5977 184.555 77.1289 185.141 70.8789 185.922C74.1341 183.708 76.8034 181.495 78.8867 179.281C80.9701 177.068 82.5977 175.049 83.7695 173.227C85.2018 171.143 86.2435 169.19 86.8945 167.367C87.4154 165.284 87.806 162.289 88.0664 158.383C88.3268 154.997 88.3268 150.505 88.0664 144.906C87.9362 139.307 87.5456 132.211 86.8945 123.617C79.082 111.117 72.7018 101.286 67.7539 94.125C62.806 86.8333 58.9648 81.2995 56.2305 77.5234C52.9753 73.2266 50.6315 70.362 49.1992 68.9297C47.8971 67.888 46.1393 66.5859 43.9258 65.0234C42.1029 63.5911 39.7591 61.8984 36.8945 59.9453C33.8997 57.862 30.319 55.3229 26.1523 52.3281Z" fill="#0055FF"/>
</svg>
